<svg class="border shadow-md" viewBox="0 0 594 475.2" style="width: 594px; height: 475.2px;" xmlns="http://www.w3.org/2000/svg" preserveAspectRatio="none"><rect class="bg" id="bg" x="0" y="0" width="594" height="475.2" fill="#ffffff"/><g transform="translate(-297 178.2) scale(1)"><path d="M486,402.5Q419,508,297,508.5Q175,509,128,403Q81,297,126,188Q171,79,305.5,64Q440,49,496.5,173Q553,297,486,402.5Z" fill="#BC044C" stroke="none" stroke-width="10"/></g><g transform="translate(297 -297) scale(1)"><path d="M492,416Q434,535,316.5,501Q199,467,115.5,382Q32,297,113.5,208.5Q195,120,311,96Q427,72,488.5,184.5Q550,297,492,416Z" fill="#BC044C" stroke="none" stroke-width="10"/></g></svg>