<svg class="border shadow-md" viewBox="0 0 661.1 528.88" style="width: 661.1px; height: 528.88px;" xmlns="http://www.w3.org/2000/svg" preserveAspectRatio="none"><rect class="bg" id="bg" x="0" y="0" width="661.1" height="528.88" fill="#ffffff"/><g transform="&#10;        translate(-545.4075&#10;        -109.08150000000002)&#10;        scale(1.65)&#10;                        "><path d="M536.5,440.5Q457,550,318,571.5Q179,593,97.5,462Q16,331,115.5,231Q215,131,354.5,89Q494,47,555,189Q616,331,536.5,440.5Z" fill="#BC044C" stroke="none" stroke-width="10"/></g><g transform="&#10;        translate(-492.5195&#10;        -98.50390000000002)&#10;        scale(1.49)&#10;                        "><path d="M536.5,440.5Q457,550,318,571.5Q179,593,97.5,462Q16,331,115.5,231Q215,131,354.5,89Q494,47,555,189Q616,331,536.5,440.5Z" fill="#c1054f" stroke="none" stroke-width="10"/></g><g transform="&#10;        translate(-436.326&#10;        -87.26520000000002)&#10;        scale(1.32)&#10;                        "><path d="M536.5,440.5Q457,550,318,571.5Q179,593,97.5,462Q16,331,115.5,231Q215,131,354.5,89Q494,47,555,189Q616,331,536.5,440.5Z" fill="#c60652" stroke="none" stroke-width="10"/></g><g transform="&#10;        translate(-383.438&#10;        -76.6876)&#10;        scale(1.16)&#10;                        "><path d="M536.5,440.5Q457,550,318,571.5Q179,593,97.5,462Q16,331,115.5,231Q215,131,354.5,89Q494,47,555,189Q616,331,536.5,440.5Z" fill="#cb0755" stroke="none" stroke-width="10"/></g><g transform="&#10;        translate(-327.2445&#10;        -65.44890000000001)&#10;        scale(0.99)&#10;                        "><path d="M536.5,440.5Q457,550,318,571.5Q179,593,97.5,462Q16,331,115.5,231Q215,131,354.5,89Q494,47,555,189Q616,331,536.5,440.5Z" fill="#d00858" stroke="none" stroke-width="10"/></g><g transform="&#10;        translate(-274.3565&#10;        -54.871300000000005)&#10;        scale(0.83)&#10;                        "><path d="M536.5,440.5Q457,550,318,571.5Q179,593,97.5,462Q16,331,115.5,231Q215,131,354.5,89Q494,47,555,189Q616,331,536.5,440.5Z" fill="#d5095b" stroke="none" stroke-width="10"/></g><g transform="&#10;        translate(-218.163&#10;        -43.63260000000001)&#10;        scale(0.66)&#10;                        "><path d="M536.5,440.5Q457,550,318,571.5Q179,593,97.5,462Q16,331,115.5,231Q215,131,354.5,89Q494,47,555,189Q616,331,536.5,440.5Z" fill="#da0a5e" stroke="none" stroke-width="10"/></g><g transform="&#10;        translate(-161.9695&#10;        -32.39390000000001)&#10;        scale(0.49)&#10;                        "><path d="M536.5,440.5Q457,550,318,571.5Q179,593,97.5,462Q16,331,115.5,231Q215,131,354.5,89Q494,47,555,189Q616,331,536.5,440.5Z" fill="#df0b61" stroke="none" stroke-width="10"/></g><g transform="&#10;        translate(-109.08150000000003&#10;        -21.816300000000012)&#10;        scale(0.33)&#10;                        "><path d="M536.5,440.5Q457,550,318,571.5Q179,593,97.5,462Q16,331,115.5,231Q215,131,354.5,89Q494,47,555,189Q616,331,536.5,440.5Z" fill="#e40c64" stroke="none" stroke-width="10"/></g><g transform="&#10;        translate(-56.19350000000003&#10;        -11.238700000000001)&#10;        scale(0.17)&#10;                        "><path d="M536.5,440.5Q457,550,318,571.5Q179,593,97.5,462Q16,331,115.5,231Q215,131,354.5,89Q494,47,555,189Q616,331,536.5,440.5Z" fill="#e90d67" stroke="none" stroke-width="10"/></g></svg>