<?xml version="1.0" encoding="utf-8"?>
<!-- Generator: Adobe Illustrator 27.2.0, SVG Export Plug-In . SVG Version: 6.00 Build 0)  -->
<svg version="1.1" id="Capa_1" xmlns="http://www.w3.org/2000/svg" xmlns:xlink="http://www.w3.org/1999/xlink" x="0px" y="0px"
	 viewBox="0 0 283.5 283.5" style="enable-background:new 0 0 283.5 283.5;" xml:space="preserve">
<style type="text/css">
	.st0{fill:#C6004C;}
	.st1{fill:#1F3F50;}
</style>
<g>
	<g>
		<g>
			<path class="st0" d="M51.5,142.2v-0.5c0-48.1,38.8-87.1,90.5-87.1s90,38.5,90,86.7v0.5c0,48.1-38.8,87.1-90.5,87.1
				S51.5,190.3,51.5,142.2z M184.6,142.2v-0.5c0-24.2-17.5-45.2-43.1-45.2c-25.4,0-42.4,20.6-42.4,44.8v0.5
				c0,24.2,17.5,45.2,42.9,45.2C167.6,187,184.6,166.4,184.6,142.2z"/>
			<g>
				<path class="st1" d="M53.8,164.4c-0.1,0.2-0.2,0.4-0.4,0.6l0,0.1c-0.3,0.7-0.5,1.5-0.9,2.5c-1.2,3.2-2.6,7.2-4.2,12
					c-1.6,4.8-2.9,9.3-3.7,13.5c-0.8,4.2-0.7,6.9,0.6,8.3c0.7,0.8,0.8,1.9,0.2,3.2c-0.5,1.3-1.2,2.3-2,3c-0.8,0.6-1.7,0.8-2.5,0.3
					c-2.2-2.7-3-6.9-2.2-12.3s2-11.2,4-17.2c1.9-6.1,3.3-10.2,4.2-12.2c-0.9,0.2-2.2,0.4-3.9,0.8c-1.7,0.4-3.5,0.8-5.2,1.2
					c-1.8,0.5-3.2,0.8-4.2,1.1c-0.7,0.1-1.2,0.6-1.6,1.2c-4.1,6.6-8,13.4-11.7,20.4c0,0.1-0.1,0.2-0.1,0.2c-0.5,0.9-1.1,1.8-1.7,2.5
					c-0.7,0.6-1.6,0.7-2.8,0.1c-1.4-0.9-2-2.3-2-4c0.1-1.8,0.4-3.7,0.9-5.7c0.6-2.3,0.9-4.3,0.7-6c-0.2-1.7-1.6-2.5-4.2-2.4
					c-1.1-0.1-1.7-0.5-2-1.5c-0.2-1-0.2-1.9,0.2-3c0.3-1,0.8-1.7,1.6-2c1.8-0.6,4.3-1.3,7.6-2.1c3.1-0.7,6.2-1.5,9-2.4
					c0.7-0.2,1.3-0.7,1.8-1.3l0.4-0.7c3.8-5.6,8.4-11.8,13.7-18.6c5.3-6.8,10.8-12.6,16.6-17.2c0.9-0.6,1.7-0.7,2.4-0.1
					c0.8,0.5,1.3,1.2,1.8,1.9c0.2,0.1,0.3,0.3,0.4,0.5c0.1-0.3,0.4-0.5,0.6-0.9c0.5-0.8,1.1-1.5,1.7-2.4c0.7-0.9,1.1-1.5,1.6-1.8
					c0.8-0.6,1.7-0.6,2.6-0.1c0.9,0.6,1.6,1.3,2,2.4c0.3,1,0.2,2.1-0.5,3c-3,3.6-5.8,8.2-8.7,13.9c-2.9,5.6-5.2,10.5-7,14.9
					c0.4,0,1-0.2,1.7-0.3l4.3-0.8c1.5-0.2,2.6-0.4,3.1-0.2c1,0.2,1.6,0.8,1.8,1.6c0.3,0.9,0.3,1.8-0.1,2.8c-0.3,0.9-1.1,1.4-2.2,1.5
					c-2.1,0.2-4,0.4-5.7,0.6c-1.6,0.3-3.4,0.6-5.1,1C54.1,164.2,53.9,164.3,53.8,164.4z M19.7,175.3c0.3,0.9,0.4,2.2,0.2,3.7
					l2.1-3.7c0.8-1.6,1.6-2.8,2-3.6c0,0-0.3,0-0.8,0.1c-0.5,0.1-1.1,0.3-1.7,0.5c-0.7,0.1-1.3,0.3-1.8,0.5c-0.6,0.2-0.9,0.3-1.2,0.3
					C18.9,173.5,19.3,174.2,19.7,175.3z M48.4,159.6c0.6-0.1,1.1-0.6,1.4-1.2c3.5-8.3,7.2-16.3,11.5-23.9c0.4-0.7,0.3-1,0.1-1.1
					c-0.3-0.1-0.6,0.1-1.1,0.4c-3.6,3.4-7.6,8-12,13.5c-4.3,5.4-7.9,10.3-10.7,14.7L48.4,159.6z"/>
				<path class="st1" d="M65.7,175.4c4.4-11.7,8.2-20.9,11.4-27.5l0.2-0.7c0.1-0.1,0.1-0.3,0.2-0.4c-1,0.2-2.5,0.6-4.6,1.2
					c-2.1,0.7-4.3,1.3-6.3,2c-2,0.7-3.5,1.2-4.4,1.7c-1.2,0.6-2.1,0.7-3,0.2c-0.8-0.4-1.3-1.1-1.4-2c-0.1-0.9,0.3-1.8,1.2-2.6
					c0.8-0.6,2.8-1.4,5.6-2.3c2.9-1,5.8-1.8,8.8-2.7c2.9-0.8,5-1.4,6-1.6c0.9-0.2,1.5-0.6,1.8-1.4c1.5-2.9,3.1-5.9,4.9-9.2
					c1.8-3.3,3.8-6.2,5.8-8.8c0.7-0.8,1.5-1.1,2.4-0.8c1,0.2,1.7,0.7,2.3,1.4c0.5,0.8,0.7,1.6,0.3,2.4c-3.5,4.3-6.6,9-9.2,14.2
					c-0.1,0.2-0.2,0.3-0.3,0.6c0.1-0.1,0.2-0.1,0.2-0.1c1.1-0.2,2.9-0.5,5.3-1c2.4-0.4,5.7-0.9,9.8-1.2c4.1-0.4,6.6-0.4,7.4-0.3
					c1.2,0.4,1.8,1,1.9,1.9c0.2,0.9,0,1.7-0.6,2.4c-0.6,0.8-1.5,1.1-2.7,1c-3.8,0-7.6,0.3-11.3,0.7c-3.8,0.5-6.3,0.9-7.8,1.2
					c-1.4,0.4-2.9,0.7-4.2,1.1c-0.8,0.1-1.3,0.6-1.6,1.3c-0.3,0.5-0.6,1.1-0.8,1.7c-4.1,8.9-7.7,17.5-10.9,25.8
					c-3.2,8.3-5.9,17.3-8,27c0,0.4,0,0.9,0,1.5c0.1,0.7,0.2,1.4,0.1,2.2c0,0.7-0.5,1.3-1.1,1.9c-1.2,0.7-2.4,0.8-3.5,0.3
					c-1.2-0.6-1.7-1.5-1.8-2.8C58.7,196.5,61.2,187.1,65.7,175.4z"/>
				<path class="st1" d="M111,118.1c0.9,0.2,1.7,0.5,2.3,1.2c0.5,0.7,0.6,1.4,0.1,2.3c-3.3,5.1-7.2,12.4-11.6,22
					c-4.4,9.6-8.4,19.2-11.7,28.7c-3.4,9.6-5.1,16.9-5.2,22c-0.1,0.7-0.6,1.2-1.7,1.5c-1,0.2-2.1,0.3-3.1,0.2
					c-1.1-0.2-1.5-0.7-1.5-1.5c1.2-8.2,3.9-17.5,7.8-28.2c3.9-10.7,8-20.4,12.3-29.3c4.3-8.9,7.6-14.8,9.9-17.8
					C109.2,118.3,110,118,111,118.1z"/>
				<path class="st1" d="M113.7,176.8c-0.3-2-0.2-4.2,0.5-6.7c0.6-2.4,1.4-4.6,2.3-6.3c-0.3,0.3-0.7,0.9-1.2,1.6
					c-1.3,1.7-3.1,4-5.2,6.6c-2.2,2.6-4.5,5-7,7.1c-2.1,1.8-3.8,2.6-5.1,2.7c-1.2,0-2.1-0.4-2.8-1.2c-1.1-1.1-1.2-3-0.3-5.6
					c1-2.4,3-5.4,5.7-8.9c2.8-3.5,5.8-6.5,8.9-8.9c3.1-2.4,5.8-3.4,8-2.6c0.3,0.1,0.7,0.1,1-0.1l0.9-0.7c0.4-0.4,0.8-0.8,1.5-1.1
					c0.6-0.1,1.3,0,2.1,0.4c0.8,0.4,1.5,1,2,1.8c0.5,0.7,0.7,1.4,0.4,2.2c-0.3,0.6-0.6,1.4-1.2,2.5c-0.9,1.8-1.8,3.9-2.8,6.2
					c-0.9,2.3-1.5,4.3-1.8,6.1c-0.2,1.7,0.3,2.6,1.6,2.8c1.7-0.1,4-1,6.9-2.8c2.9-1.8,5.8-4,8.8-6.6c3-2.5,5.3-4.9,7.1-7
					c0.7-0.9,1.5-1.2,2.3-1.1c0.7,0.1,1.3,0.5,1.5,1.4c0.1,0.8-0.3,1.9-1.3,3.2c-3.7,4.5-8.5,8.8-14.4,12.9
					c-5.8,4.2-10.7,6.1-14.6,5.9C115.4,179.9,114.1,178.7,113.7,176.8z M126.4,132.5c3.1-2.7,6.1-2.4,6.8-0.4
					c0.6,1.9-0.5,2.9-1.8,3.9c-1.6,1.3-6.6,5.7-7.9,7c-2.2,2.3-4,3.8-5.6,3.9c-2,0.2-3.8-1.5-1.7-3.4
					C118.3,141.5,124.2,134.5,126.4,132.5z"/>
				<path class="st1" d="M148.4,152.5c1,0.2,1.8,0.7,2.5,1.4c0.6,0.8,0.8,1.6,0.4,2.5c-0.5,0.8-1,1.8-1.5,2.5
					c-0.6,1-1.1,1.9-1.5,2.5c-0.3,0.8-0.5,1.3-0.5,1.6c0.7-0.9,1.9-2.2,3.7-4c1.7-1.8,3.5-3.7,5.3-5.3c1.8-1.8,3.2-2.9,4-3.4
					c0.7-0.3,1.5-0.2,2.4,0.2c0.9,0.4,1.6,1,2.2,1.8c0.6,0.8,0.9,1.6,0.8,2.4c-0.1,0.7-0.4,1.5-0.8,2.6l-1.5,3.5
					c-0.8,1.8-1.4,3.3-1.8,4.6c-0.5,1.3-0.6,2.1-0.2,2.3c1.2,0.2,2.9-0.3,5.1-1.6c2.2-1.3,4.2-2.8,6.2-4.4c2.1-1.6,3.4-2.8,4.3-3.5
					c0,0,0.1-0.1,0.2-0.1c0.8-0.7,1.6-0.9,2.3-0.6c0.7,0.4,1,0.9,1.2,1.7c0.1,0.8-0.3,1.6-1.1,2.4c-3.5,3.2-7.3,6.1-11.6,8.8
					c-4.3,2.7-7.9,3.7-10.6,2.8c-1.7-0.9-2.2-2.6-1.8-5c0.5-2.5,1.1-4.8,2-6.9c0.3-0.9,0.6-1.7,0.8-2.3c0-0.6-0.5-0.2-1.8,1
					c-1.2,1.2-2.7,3-4.5,5l-5.2,6.1c-1.9,2.3-3.2,4-4,4.8c-0.7,0.5-1.5,0.8-2.5,0.5c-0.9-0.3-1.8-0.8-2.4-1.5
					c-0.6-0.8-0.8-1.8-0.5-3c2.1-5.7,4.7-11.9,8-18.5C146.6,152.7,147.4,152.3,148.4,152.5z"/>
				<path class="st1" d="M173.3,167c4.4-11.7,8.2-20.9,11.4-27.5l0.2-0.7c0.1-0.1,0.1-0.3,0.2-0.4c-1,0.2-2.5,0.6-4.6,1.2
					c-2.1,0.7-4.3,1.3-6.3,2c-2,0.7-3.5,1.2-4.4,1.7c-1.2,0.6-2.1,0.7-3,0.2c-0.8-0.4-1.3-1.1-1.4-2c-0.1-0.9,0.3-1.8,1.2-2.6
					c0.8-0.6,2.8-1.4,5.6-2.3c2.9-1,5.8-1.8,8.8-2.7c2.9-0.8,5-1.4,6-1.6c0.9-0.1,1.5-0.6,1.8-1.4c1.5-2.9,3.1-5.9,4.9-9.2
					c1.8-3.3,3.8-6.2,5.8-8.8c0.7-0.8,1.5-1.1,2.4-0.8c1,0.2,1.7,0.7,2.3,1.4c0.5,0.8,0.7,1.6,0.3,2.4c-3.5,4.3-6.6,9-9.2,14.2
					c-0.1,0.2-0.2,0.3-0.3,0.6c0.1-0.1,0.2-0.1,0.2-0.1c1.1-0.2,2.9-0.5,5.3-1c2.4-0.4,5.7-0.9,9.8-1.2c4.1-0.4,6.6-0.4,7.4-0.3
					c1.2,0.4,1.8,1,1.9,1.9c0.2,0.9,0,1.7-0.6,2.4c-0.6,0.8-1.5,1.1-2.7,1c-3.8,0-7.6,0.3-11.3,0.7c-3.8,0.5-6.3,0.9-7.8,1.2
					c-1.4,0.4-2.9,0.7-4.2,1.1c-0.8,0.1-1.3,0.6-1.6,1.3c-0.3,0.5-0.6,1.1-0.8,1.7c-4.1,8.9-7.7,17.5-10.9,25.8
					c-3.2,8.3-5.9,17.3-8,27c0,0.4,0,0.9,0,1.5c0.1,0.7,0.2,1.4,0.1,2.2c0,0.7-0.5,1.3-1.1,1.9c-1.2,0.7-2.4,0.8-3.5,0.3
					c-1.2-0.6-1.7-1.5-1.8-2.8C166.3,188.1,168.9,178.8,173.3,167z"/>
				<path class="st1" d="M194.5,149.5c1.1,0.2,1.9,0.7,2.6,1.4c0.7,0.8,0.8,1.7,0.2,2.8c-1.6,2.4-3,4.8-4.4,7.4
					c-1.3,2.5-2.2,4.5-2.3,6.2c-0.2,1.6,0.7,2.3,2.6,2c2.9-0.6,6.1-2.1,9.4-4.4c3.4-2.3,6.4-4.6,9.2-7c2.8-2.4,4.7-4.2,5.7-5.1
					c0.3-0.3,0.5-0.4,0.5-0.5c0.6-0.5,1.2-0.7,1.8-0.5c0.7,0.2,1,0.6,1.2,1.2c0.2,0.6-0.1,1.3-0.7,2.2c-1.2,1.3-3.4,3.5-6.7,6.6
					c-3.3,3.1-7,6-11.1,8.7c-4.1,2.7-7.8,4.2-11.1,4.6c-3.4,0.3-5.6-1.6-6.8-5.8c-0.3-3,0.5-6.5,2.4-10.3c1.9-3.8,3.4-6.7,4.8-8.5
					C192.6,149.6,193.4,149.4,194.5,149.5z M197.9,140.5c0.7-1.6,1.6-2.9,2.5-3.7c0.5-0.4,1.2-0.7,2.3-0.7c1-0.2,2-0.1,2.8,0.2
					c0.9,0.3,1.3,0.8,1.1,1.7c-0.3,1-1.1,2.4-2.4,3.9c-1.3,1.6-2.7,3-4.1,4.2c-1.4,1.2-2.5,1.7-3.3,1.6c-0.5-0.2-0.6-1.1-0.4-2.6
					C196.7,143.7,197.1,142.1,197.9,140.5z"/>
				<path class="st1" d="M250.9,149.3c0.8,0.4,1.1,1.1,1.1,2.1c0.1,1-0.6,1.9-1.7,2.8c-4.5,3.4-10.5,7-17.8,10.7
					c-7.4,3.6-13.8,5.7-19.2,5.9c-3.2-0.2-5-1.6-5.5-3.9c-0.4-2.4,0.3-5,2.1-7.9c3.9-6,9-10.6,15.6-13.6c1.5-0.5,2.6-0.4,3.4,0.4
					c0.8,0.8,1.1,1.8,1,3.1c-0.1,1.2-0.7,2.2-1.7,3.1c-0.7,0.5-1.2,0.7-1.6,0.7c-0.4,0-0.7-0.1-1-0.3c-0.3-0.1-0.5-0.2-0.8-0.3
					c-0.2-0.1-0.6,0-1,0.3c-2.8,2-5.2,4.2-7.2,6.7c-2,2.5-2.8,4.3-2.5,5.4c1,1.1,3.6,0.9,8.1-0.8c4.4-1.7,9-3.9,13.8-6.6
					c4.8-2.6,8.4-4.9,10.6-6.6c0.5-0.4,1-0.8,1.5-1.1C249.1,148.8,250.1,148.8,250.9,149.3z"/>
				<path class="st1" d="M247.6,168c-2.5,2-4.6,2.5-6.2,1.7c-1.7-0.8-2.6-2.1-2.7-4c0-3.2,1-6.6,3.1-9.9c2.1-3.4,4.2-6.2,6.6-8.3
					c0.7-0.6,1.3-1,1.8-1.2c0.5-0.1,0.9-0.2,1.3-0.2c0.5,0,1-0.1,1.7-0.2c0.9-0.3,1.8-0.3,2.6,0.1c0.8,0.4,1.3,1.2,1.6,2.1
					c0.6,2,2,3.3,3.9,4.1c1.9,0.7,3.9,1,6,0.8c2.1-0.2,3.7-0.6,4.7-1.3c0.7-0.5,1.3-0.4,1.9,0c0.4,0.5,0.8,1.1,0.9,1.8
					c0.1,0.7-0.1,1.2-0.5,1.7c-2.8,2-6.1,2.9-9.8,2.9c-3.6,0-6.7-0.9-9.1-2.4C252.6,161.9,250,166.1,247.6,168z M245.4,162.5
					c0.6-0.9,1.1-1.9,1.8-3.1c0.7-1.2,1.3-2.3,1.7-3.3s0.6-1.6,0.5-1.8c-0.4,0.3-0.8,0.9-1.5,1.8c-0.6,0.9-1.2,1.9-1.8,3.1
					c-0.6,1.1-1.1,2-1.4,2.9c-0.3,0.9-0.4,1.4-0.2,1.6C244.6,163.8,244.9,163.3,245.4,162.5z"/>
			</g>
		</g>
	</g>
	<g>
		<path class="st1" d="M116.5,118c-0.7-1.4-0.6-3.1,0.4-5.1c1-2,2.8-3.9,5.3-5.7c0.9-0.6,1.9-1.1,3.1-1.5c1.1-0.4,2.2-0.4,3.2-0.1
			c1.3,0.5,1.9,1.6,1.9,3.1c0,1.5-0.4,3.2-1,4.9c-0.6,1.7-1.2,3-1.6,4l-0.1,0.1c0,0,0.1,0,0.1,0c0,0,0.1,0,0.1,0
			c0.9-0.3,1.9-0.7,3-1.2c0.3-0.1,0.6-0.3,0.9-0.4c0.4-0.2,0.7-0.1,0.8,0.3c0.1,0.4,0,0.6-0.4,0.8c-0.4,0.2-0.8,0.3-1.2,0.5
			c-1.3,0.5-2.6,1-3.7,1.3c-0.3,0.1-0.4,0.2-0.5,0.4c-1,2.1-2.2,4.1-3.7,6c-0.5,0.5-1,0.9-1.5,1c-0.5,0.1-0.9-0.1-1.2-0.6
			c-0.3-0.5-0.2-1.4,0.2-2.6l1.1-3c0,0-0.1,0-0.1,0c-0.1,0-0.1,0-0.2,0C118.9,120.1,117.2,119.4,116.5,118z M118.5,118
			c0.9,0.8,2.2,1.1,3.8,0.9c0.6-1.2,1.3-2.5,2.2-3.9c0.8-1.4,1.7-2.7,2.7-3.8c0.2-0.3,0.5-0.4,0.7-0.4c0.2,0,0.4,0,0.5,0
			c0.1,0,0.2,0,0.2,0c0.1-0.4,0.2-1,0.2-1.7c0-0.7-0.1-1.3-0.4-1.8c-0.3-0.5-0.9-0.8-1.6-0.8c-1.6,0.2-3.3,1-4.9,2.4
			c-1.7,1.4-2.9,3-3.7,4.7C117.3,115.3,117.4,116.8,118.5,118z M122.7,123.7c0.9-1.4,1.7-2.7,2.4-4.1l-0.4,0.1
			c-0.4,0.1-0.8,0.2-1.2,0.2c-0.1,0-0.1,0.1-0.2,0.1l-0.1,0.1l0,0c-0.5,1.2-1,2.4-1.3,3.5c-0.2,0.8-0.2,1.1-0.1,1.1
			C122,124.7,122.3,124.4,122.7,123.7z M125.2,118.4c0.2-0.1,0.4-0.1,0.6-0.1c1-2.1,1.8-4.1,2.4-6.2c-0.1,0.1-0.3,0.3-0.4,0.6
			c-0.2,0.3-0.4,0.6-0.5,1l-0.3,0.7c-0.1,0.3-0.2,0.5-0.4,0.6c-0.1,0.1-0.2,0.1-0.3,0.1c-0.1,0-0.1,0.1-0.2,0.1
			c-0.1,0-0.1,0.1-0.2,0.2l-0.4,0.7c-0.3,0.5-0.6,1-0.8,1.5c-0.3,0.5-0.5,0.9-0.6,1.1L125.2,118.4z"/>
		<path class="st1" d="M133.8,113.2c0.1,0.2,0.1,0.3,0,0.5c0,0.2-0.1,0.3-0.2,0.5c-0.1,0.1-0.2,0.3-0.4,0.8
			c-0.2,0.4-0.4,0.9-0.6,1.4c-0.2,0.5-0.4,1-0.5,1.4c-0.1,0.4-0.2,0.6-0.1,0.6c0.3-0.6,0.8-1.3,1.3-2.1c0.6-0.8,1.1-1.4,1.6-1.9
			c0.4-0.3,0.8-0.5,1.1-0.4c0.3,0.1,0.5,0.4,0.5,0.9c0,0.1,0,0.3,0,0.4l0,0.2c0.7-0.4,1.5-0.8,2.4-0.9c0.9-0.2,1.6-0.2,2-0.1
			c0.2,0,0.2,0.2,0.3,0.3c0,0.2,0,0.3-0.1,0.5c-0.1,0.1-0.2,0.2-0.3,0.2c-1.2,0.1-2.2,0.3-3,0.7c-0.8,0.4-1.4,0.8-1.8,1.3
			c-0.3,0.4-0.7,0.8-1,1.4c-0.3,0.4-0.5,0.7-0.8,1.1c-0.3,0.3-0.5,0.6-0.7,0.8c-0.2,0.1-0.4,0.2-0.5,0.1c-0.2,0-0.3-0.2-0.4-0.4
			c0-0.1,0-0.1-0.1-0.2c0-0.1-0.1-0.1-0.1-0.2c0,0-0.1,0.1-0.2,0.2c-0.7,1.1-1.3,2.3-1.8,3.5c-0.5,1.2-0.9,2.4-1.2,3.6
			c0,0.1,0,0.1-0.1,0.2c-0.1,0.4-0.3,0.6-0.5,0.6c-0.2,0.1-0.4,0-0.6-0.1c-0.2-0.1-0.3-0.3-0.2-0.5c0-0.2,0-0.3,0.1-0.5
			c1.2-4.4,2.6-8.7,4.2-13l0-0.1c0.1-0.3,0.2-0.6,0.4-0.9c0.2-0.3,0.4-0.4,0.8-0.3C133.6,112.9,133.8,113,133.8,113.2z M133.6,118.6
			c0.1-0.2,0.3-0.4,0.4-0.6c0.2-0.2,0.3-0.5,0.4-0.7c0.1-0.2,0.1-0.3,0.1-0.3c0,0-0.1,0.1-0.3,0.3c-0.2,0.2-0.3,0.5-0.5,0.8
			c-0.2,0.3-0.3,0.5-0.5,0.8C133.3,118.9,133.4,118.8,133.6,118.6z"/>
		<path class="st1" d="M148.9,114.1c0.2,0.1,0.3,0.3,0.3,0.5c0,0.2-0.1,0.5-0.4,0.7c-1.1,0.8-2.5,1.7-4.2,2.6
			c-1.7,0.9-3.3,1.4-4.5,1.5c-0.8,0-1.2-0.4-1.3-0.9c-0.1-0.6,0-1.2,0.5-1.9c0.9-1.4,2.1-2.5,3.7-3.3c0.4-0.1,0.6-0.1,0.8,0.1
			c0.2,0.2,0.3,0.4,0.2,0.7c0,0.3-0.2,0.5-0.4,0.7c-0.2,0.1-0.3,0.2-0.4,0.2c-0.1,0-0.2,0-0.2-0.1c-0.1,0-0.1,0-0.2-0.1
			c-0.1,0-0.1,0-0.2,0.1c-0.6,0.5-1.2,1-1.7,1.6c-0.5,0.6-0.7,1-0.6,1.3c0.2,0.3,0.9,0.2,1.9-0.2c1-0.4,2.1-0.9,3.3-1.6
			c1.1-0.6,2-1.2,2.5-1.6c0.1-0.1,0.2-0.2,0.4-0.3C148.5,114,148.7,114,148.9,114.1z"/>
		<path class="st1" d="M149.1,113.1c0.3,0,0.5,0.1,0.6,0.3c0.2,0.2,0.2,0.4,0.1,0.7c-0.4,0.6-0.7,1.2-1,1.8
			c-0.3,0.6-0.5,1.1-0.5,1.5c0,0.4,0.2,0.5,0.6,0.5c0.7-0.2,1.4-0.5,2.2-1.1c0.8-0.6,1.5-1.1,2.2-1.7c0.7-0.6,1.1-1,1.3-1.2
			c0.1-0.1,0.1-0.1,0.1-0.1c0.1-0.1,0.3-0.2,0.4-0.1c0.2,0,0.2,0.1,0.3,0.3c0.1,0.1,0,0.3-0.2,0.5c-0.3,0.3-0.8,0.8-1.6,1.6
			s-1.6,1.4-2.6,2.1c-1,0.7-1.8,1-2.6,1.1c-0.8,0.1-1.3-0.4-1.6-1.3c-0.1-0.7,0.1-1.5,0.5-2.5c0.4-0.9,0.8-1.6,1.1-2
			C148.6,113.1,148.8,113,149.1,113.1z M149.8,110.9c0.2-0.4,0.4-0.7,0.6-0.9c0.1-0.1,0.3-0.2,0.5-0.2c0.2,0,0.5,0,0.7,0
			c0.2,0.1,0.3,0.2,0.3,0.4c-0.1,0.2-0.3,0.6-0.5,0.9c-0.3,0.4-0.6,0.7-1,1c-0.3,0.3-0.6,0.4-0.8,0.4c-0.1,0-0.2-0.3-0.1-0.6
			C149.6,111.7,149.7,111.3,149.8,110.9z"/>
		<path class="st1" d="M154.3,117.9c-0.6,0.5-1.1,0.6-1.5,0.4c-0.4-0.2-0.6-0.5-0.7-0.9c0-0.8,0.2-1.6,0.7-2.4c0.5-0.8,1-1.5,1.5-2
			c0.2-0.1,0.3-0.2,0.4-0.3c0.1,0,0.2-0.1,0.3,0c0.1,0,0.2,0,0.4-0.1c0.2-0.1,0.4-0.1,0.6,0c0.2,0.1,0.3,0.3,0.4,0.5
			c0.2,0.5,0.5,0.8,0.9,1c0.5,0.2,0.9,0.2,1.4,0.2c0.5,0,0.9-0.2,1.1-0.3c0.2-0.1,0.3-0.1,0.4,0c0.1,0.1,0.2,0.3,0.2,0.4
			c0,0.2,0,0.3-0.1,0.4c-0.7,0.5-1.4,0.7-2.3,0.7c-0.9,0-1.6-0.2-2.2-0.5C155.5,116.5,154.9,117.5,154.3,117.9z M153.8,116.6
			c0.1-0.2,0.3-0.4,0.4-0.7c0.2-0.3,0.3-0.5,0.4-0.8c0.1-0.2,0.1-0.4,0.1-0.4c-0.1,0.1-0.2,0.2-0.3,0.4c-0.1,0.2-0.3,0.4-0.4,0.7
			c-0.1,0.3-0.2,0.5-0.3,0.7c-0.1,0.2-0.1,0.3,0,0.4C153.6,117,153.7,116.8,153.8,116.6z M157.2,107.6c0.7-0.6,1.4-0.6,1.6-0.1
			c0.2,0.4-0.1,0.7-0.4,0.9c-0.4,0.3-1.5,1.4-1.9,1.7c-0.5,0.5-0.9,0.9-1.3,0.9c-0.5,0-0.9-0.3-0.4-0.8
			C155.3,109.8,156.7,108.1,157.2,107.6z"/>
		<path class="st1" d="M161.4,111.8c0.2,0,0.4,0.2,0.6,0.3c0.2,0.2,0.2,0.4,0.1,0.6c-0.1,0.2-0.2,0.4-0.3,0.6
			c-0.1,0.2-0.2,0.4-0.3,0.6c-0.1,0.2-0.1,0.3-0.1,0.4c0.2-0.2,0.5-0.5,0.9-1c0.4-0.4,0.8-0.9,1.2-1.3c0.4-0.4,0.7-0.7,0.9-0.8
			c0.2-0.1,0.4-0.1,0.6,0c0.2,0.1,0.4,0.2,0.5,0.4c0.2,0.2,0.2,0.4,0.2,0.6c0,0.2-0.1,0.4-0.2,0.6l-0.3,0.8
			c-0.2,0.4-0.3,0.8-0.4,1.1c-0.1,0.3-0.1,0.5,0,0.5c0.3,0.1,0.7-0.1,1.2-0.4c0.5-0.3,1-0.7,1.5-1.1c0.5-0.4,0.8-0.7,1-0.8
			c0,0,0,0,0,0c0.2-0.2,0.4-0.2,0.5-0.1c0.2,0.1,0.2,0.2,0.3,0.4c0,0.2-0.1,0.4-0.3,0.6c-0.8,0.8-1.7,1.5-2.7,2.1
			c-1,0.7-1.9,0.9-2.5,0.7c-0.4-0.2-0.5-0.6-0.4-1.2c0.1-0.6,0.2-1.1,0.4-1.7c0.1-0.2,0.1-0.4,0.2-0.6c0-0.1-0.1,0-0.4,0.2
			c-0.3,0.3-0.6,0.7-1,1.2l-1.2,1.5c-0.4,0.6-0.8,1-0.9,1.2c-0.2,0.1-0.3,0.2-0.6,0.1c-0.2-0.1-0.4-0.2-0.6-0.4
			c-0.2-0.2-0.2-0.4-0.1-0.7c0.5-1.4,1.1-2.8,1.8-4.4C161,111.8,161.2,111.7,161.4,111.8z"/>
	</g>
</g>
</svg>
